<?xml version="1.0" encoding="UTF-8"?>
<svg xmlns="http://www.w3.org/2000/svg" xmlns:xlink="http://www.w3.org/1999/xlink" width="300pt" height="299.999988pt" viewBox="0 0 300 299.999988" version="1.2">
<g id="surface1">
<path style=" stroke:none;fill-rule:nonzero;fill:rgb(94.119263%,94.509888%,97.24884%);fill-opacity:1;" d="M 150 0.339844 C 67.238281 0.339844 0 67.578125 0 150.339844 C 0 225.472656 55.414062 287.648438 127.585938 298.488281 L 135.417969 299.675781 L 135.417969 181.476562 L 99.980469 181.476562 L 99.980469 157.480469 L 135.417969 157.480469 L 135.417969 125.613281 C 135.417969 105.988281 140.128906 93.0625 147.921875 84.957031 C 155.71875 76.847656 167.238281 72.757812 183.265625 72.757812 C 196.082031 72.757812 201.066406 73.535156 205.808594 74.117188 L 205.808594 93.757812 L 189.125 93.757812 C 179.65625 93.757812 171.890625 99.039062 167.859375 106.074219 C 163.824219 113.113281 162.570312 121.511719 162.570312 130.074219 L 162.570312 157.464844 L 204.320312 157.464844 L 200.605469 181.460938 L 162.570312 181.460938 L 162.570312 299.863281 L 170.308594 298.808594 C 243.507812 288.882812 300 226.207031 300 150.339844 C 300 67.578125 232.761719 0.339844 150 0.339844 Z M 150 13.976562 C 225.390625 13.976562 286.363281 74.949219 286.363281 150.339844 C 286.363281 216.679688 238.878906 271.238281 176.207031 283.523438 L 176.207031 195.097656 L 212.296875 195.097656 L 220.21875 143.828125 L 176.207031 143.828125 L 176.207031 130.074219 C 176.207031 123 177.5 116.660156 179.683594 112.855469 C 181.863281 109.046875 183.96875 107.394531 189.125 107.394531 L 219.445312 107.394531 L 219.445312 61.769531 L 213.535156 60.972656 C 209.445312 60.417969 200.109375 59.121094 183.265625 59.121094 C 164.835938 59.121094 149.015625 64.140625 138.09375 75.5 C 127.175781 86.859375 121.78125 103.773438 121.78125 125.613281 L 121.78125 143.84375 L 86.347656 143.84375 L 86.347656 195.113281 L 121.78125 195.113281 L 121.78125 283.09375 C 60.117188 270.03125 13.636719 215.960938 13.636719 150.339844 C 13.636719 74.949219 74.609375 13.976562 150 13.976562 Z M 150 13.976562 "/>
</g>
</svg>
