<?xml version="1.0" encoding="UTF-8"?>
<svg xmlns="http://www.w3.org/2000/svg" xmlns:xlink="http://www.w3.org/1999/xlink" width="300pt" height="299.999988pt" viewBox="0 0 300 299.999988" version="1.2">
<defs>
<clipPath id="clip1">
  <path d="M 9 13.125 L 291 13.125 L 291 286.875 L 9 286.875 Z M 9 13.125 "/>
</clipPath>
</defs>
<g id="surface1">
<g clip-path="url(#clip1)" clip-rule="nonzero">
<path style=" stroke:none;fill-rule:nonzero;fill:rgb(13.328552%,14.118958%,16.468811%);fill-opacity:1;" d="M 195.246094 285.800781 C 194.78125 285.917969 194.304688 285.976562 193.824219 285.980469 L 192.777344 285.019531 L 192.777344 276.859375 C 192.777344 269.261719 192.90625 257.761719 192.90625 244.597656 C 192.980469 240.710938 192.609375 236.871094 191.792969 233.070312 C 190.976562 229.273438 189.734375 225.617188 188.070312 222.109375 C 217.246094 216.839844 249.945312 201.078125 249.945312 144.640625 C 250.003906 140.945312 249.738281 137.269531 249.152344 133.621094 C 248.566406 129.972656 247.664062 126.402344 246.449219 122.910156 C 245.234375 119.417969 243.722656 116.058594 241.914062 112.835938 C 240.109375 109.609375 238.035156 106.566406 235.695312 103.707031 C 236.574219 100.417969 237.179688 97.078125 237.503906 93.691406 C 237.832031 90.304688 237.882812 86.910156 237.648438 83.515625 C 237.414062 80.121094 236.90625 76.765625 236.117188 73.453125 C 235.332031 70.144531 234.277344 66.917969 232.957031 63.78125 C 232.605469 62.894531 232.082031 62.121094 231.386719 61.46875 C 230.6875 60.816406 229.886719 60.339844 228.976562 60.046875 C 227.261719 59.566406 225.515625 59.347656 223.734375 59.394531 C 220.277344 59.699219 216.863281 60.25 213.484375 61.042969 C 210.109375 61.835938 206.804688 62.863281 203.574219 64.125 C 200.34375 65.386719 197.21875 66.871094 194.199219 68.574219 C 191.179688 70.28125 188.296875 72.191406 185.550781 74.308594 C 173.878906 71.40625 162.027344 69.921875 150 69.859375 C 137.964844 69.882812 126.113281 71.355469 114.4375 74.285156 C 111.6875 72.164062 108.796875 70.253906 105.773438 68.546875 C 102.75 66.839844 99.621094 65.355469 96.386719 64.09375 C 93.152344 62.832031 89.84375 61.804688 86.460938 61.011719 C 83.082031 60.222656 79.660156 59.671875 76.203125 59.367188 C 74.421875 59.324219 72.671875 59.539062 70.957031 60.019531 C 70.046875 60.316406 69.246094 60.792969 68.546875 61.449219 C 67.851562 62.105469 67.328125 62.878906 66.980469 63.769531 C 65.660156 66.90625 64.609375 70.132812 63.824219 73.445312 C 63.039062 76.757812 62.53125 80.109375 62.304688 83.507812 C 62.074219 86.902344 62.128906 90.292969 62.460938 93.683594 C 62.796875 97.070312 63.40625 100.40625 64.292969 103.691406 C 61.949219 106.554688 59.875 109.59375 58.066406 112.820312 C 56.261719 116.046875 54.75 119.402344 53.53125 122.894531 C 52.316406 126.386719 51.414062 129.957031 50.824219 133.605469 C 50.238281 137.257812 49.972656 140.929688 50.03125 144.628906 C 50.03125 201.039062 82.699219 216.875 111.816406 222.199219 C 110.203125 225.460938 109.019531 228.871094 108.257812 232.433594 C 104.746094 233.714844 101.117188 234.382812 97.375 234.425781 C 94.789062 234.484375 92.277344 234.078125 89.839844 233.210938 C 87.40625 232.34375 85.203125 231.066406 83.238281 229.386719 C 82.855469 228.882812 82.398438 228.453125 81.871094 228.109375 C 80.992188 227.144531 80.171875 226.140625 79.402344 225.089844 L 79.144531 224.78125 C 79.078125 224.660156 79 224.546875 78.914062 224.4375 L 77.839844 223.054688 C 77.492188 222.648438 77.167969 222.222656 76.867188 221.777344 C 76.140625 220.511719 75.34375 219.296875 74.476562 218.125 C 73.605469 216.953125 72.671875 215.835938 71.675781 214.777344 C 70.675781 213.714844 69.617188 212.714844 68.5 211.777344 C 67.386719 210.839844 66.21875 209.972656 65 209.171875 C 63.78125 208.367188 62.523438 207.640625 61.21875 206.988281 C 59.917969 206.335938 58.578125 205.757812 57.210938 205.261719 C 55.839844 204.765625 54.445312 204.351562 53.027344 204.015625 C 51.605469 203.683594 50.171875 203.433594 48.726562 203.265625 C 41.933594 203.265625 37.429688 205.65625 36.074219 210.03125 C 33.949219 216.875 41.371094 221.980469 44.953125 224.347656 C 48.058594 226.484375 50.71875 229.074219 52.941406 232.121094 C 55.160156 235.164062 56.8125 238.492188 57.898438 242.101562 C 58.675781 244.117188 59.609375 246.0625 60.695312 247.929688 C 61.78125 249.796875 63.007812 251.566406 64.378906 253.242188 C 65.746094 254.914062 67.238281 256.46875 68.855469 257.902344 C 70.46875 259.339844 72.1875 260.636719 74.011719 261.800781 C 75.832031 262.960938 77.734375 263.972656 79.71875 264.832031 C 81.703125 265.695312 83.738281 266.390625 85.832031 266.925781 C 87.925781 267.460938 90.050781 267.828125 92.203125 268.027344 C 94.355469 268.226562 96.507812 268.253906 98.664062 268.109375 C 101.492188 268.105469 104.304688 267.921875 107.109375 267.558594 L 107.261719 285.070312 L 106.125 285.992188 C 105.726562 285.992188 105.253906 285.992188 105.664062 286.09375 C 103.058594 285.226562 100.484375 284.28125 97.9375 283.261719 C 95.390625 282.242188 92.875 281.148438 90.390625 279.980469 C 87.90625 278.8125 85.460938 277.570312 83.050781 276.261719 C 80.640625 274.949219 78.269531 273.566406 75.941406 272.117188 C 73.609375 270.667969 71.324219 269.148438 69.085938 267.566406 C 66.84375 265.980469 64.652344 264.332031 62.507812 262.617188 C 60.367188 260.90625 58.273438 259.128906 56.234375 257.292969 C 54.195312 255.457031 52.210938 253.5625 50.28125 251.613281 C 48.355469 249.660156 46.484375 247.652344 44.675781 245.589844 C 42.863281 243.527344 41.117188 241.414062 39.429688 239.25 C 37.742188 237.082031 36.121094 234.871094 34.566406 232.613281 C 33.007812 230.351562 31.519531 228.046875 30.097656 225.699219 C 28.679688 223.351562 27.328125 220.964844 26.046875 218.539062 C 24.765625 216.113281 23.554688 213.648438 22.417969 211.152344 C 21.28125 208.65625 20.21875 206.125 19.230469 203.566406 C 18.242188 201.003906 17.332031 198.417969 16.496094 195.804688 C 15.660156 193.191406 14.898438 190.554688 14.21875 187.898438 C 13.535156 185.238281 12.933594 182.5625 12.410156 179.871094 C 11.882812 177.175781 11.4375 174.46875 11.074219 171.75 C 10.707031 169.03125 10.421875 166.300781 10.214844 163.566406 C 10.011719 160.828125 9.886719 158.089844 9.839844 155.34375 C 9.796875 152.601562 9.832031 149.859375 9.949219 147.117188 C 10.0625 144.375 10.261719 141.640625 10.539062 138.910156 C 10.816406 136.179688 11.171875 133.460938 11.609375 130.75 C 12.042969 128.042969 12.558594 125.347656 13.15625 122.667969 C 13.75 119.988281 14.421875 117.332031 15.171875 114.691406 C 15.921875 112.050781 16.75 109.4375 17.65625 106.84375 C 18.558594 104.253906 19.539062 101.691406 20.59375 99.160156 C 21.648438 96.625 22.777344 94.125 23.976562 91.65625 C 25.179688 89.191406 26.453125 86.761719 27.796875 84.367188 C 29.140625 81.976562 30.550781 79.625 32.035156 77.316406 C 33.515625 75.003906 35.066406 72.742188 36.679688 70.523438 C 38.292969 68.304688 39.972656 66.136719 41.714844 64.015625 C 43.457031 61.894531 45.261719 59.828125 47.125 57.8125 C 48.988281 55.796875 50.910156 53.839844 52.886719 51.9375 C 54.867188 50.039062 56.898438 48.195312 58.984375 46.414062 C 61.070312 44.632812 63.207031 42.910156 65.394531 41.253906 C 67.582031 39.597656 69.816406 38.007812 72.097656 36.480469 C 74.378906 34.957031 76.703125 33.5 79.070312 32.109375 C 81.4375 30.71875 83.84375 29.402344 86.285156 28.152344 C 88.730469 26.90625 91.207031 25.730469 93.722656 24.628906 C 96.234375 23.523438 98.777344 22.496094 101.351562 21.542969 C 103.921875 20.589844 106.523438 19.710938 109.148438 18.910156 C 111.773438 18.109375 114.417969 17.386719 117.085938 16.742188 C 119.753906 16.097656 122.4375 15.53125 125.136719 15.042969 C 127.835938 14.554688 130.550781 14.144531 133.273438 13.816406 C 136 13.488281 138.730469 13.242188 141.46875 13.070312 C 144.207031 12.902344 146.949219 12.816406 149.695312 12.808594 C 152.4375 12.800781 155.179688 12.875 157.917969 13.027344 C 160.660156 13.179688 163.390625 13.414062 166.117188 13.726562 C 168.84375 14.042969 171.558594 14.4375 174.261719 14.910156 C 176.964844 15.382812 179.652344 15.933594 182.324219 16.566406 C 184.992188 17.195312 187.644531 17.90625 190.273438 18.691406 C 192.902344 19.476562 195.503906 20.339844 198.082031 21.28125 C 200.660156 22.21875 203.210938 23.234375 205.730469 24.324219 C 208.246094 25.410156 210.734375 26.574219 213.183594 27.808594 C 215.632812 29.042969 218.046875 30.347656 220.421875 31.726562 C 222.792969 33.101562 225.125 34.546875 227.414062 36.058594 C 229.703125 37.574219 231.949219 39.152344 234.144531 40.796875 C 236.339844 42.441406 238.488281 44.148438 240.582031 45.921875 C 242.679688 47.691406 244.722656 49.523438 246.710938 51.414062 C 248.699219 53.304688 250.632812 55.25 252.503906 57.253906 C 254.378906 59.257812 256.195312 61.316406 257.949219 63.429688 C 259.703125 65.539062 261.390625 67.699219 263.019531 69.910156 C 264.644531 72.117188 266.207031 74.375 267.699219 76.675781 C 269.195312 78.976562 270.621094 81.320312 271.976562 83.707031 C 273.335938 86.089844 274.621094 88.511719 275.835938 90.972656 C 277.050781 93.433594 278.191406 95.929688 279.261719 98.457031 C 280.328125 100.984375 281.324219 103.542969 282.242188 106.128906 C 283.160156 108.714844 284 111.324219 284.765625 113.960938 C 285.53125 116.59375 286.21875 119.25 286.828125 121.925781 C 287.4375 124.601562 287.964844 127.292969 288.417969 130 C 288.867188 132.707031 289.238281 135.425781 289.53125 138.152344 C 289.824219 140.882812 290.035156 143.617188 290.164062 146.355469 C 290.296875 149.097656 290.347656 151.839844 290.316406 154.585938 C 290.289062 157.328125 290.179688 160.070312 289.988281 162.808594 C 289.796875 165.542969 289.527344 168.273438 289.175781 170.996094 C 288.824219 173.71875 288.394531 176.425781 287.882812 179.121094 C 287.375 181.820312 286.785156 184.496094 286.117188 187.160156 C 285.449219 189.820312 284.707031 192.460938 283.882812 195.078125 C 283.0625 197.699219 282.164062 200.289062 281.1875 202.855469 C 280.214844 205.421875 279.167969 207.953125 278.042969 210.457031 C 276.921875 212.960938 275.722656 215.429688 274.457031 217.863281 C 273.1875 220.296875 271.851562 222.691406 270.441406 225.046875 C 269.035156 227.402344 267.558594 229.714844 266.011719 231.984375 C 264.46875 234.25 262.859375 236.472656 261.183594 238.648438 C 259.511719 240.820312 257.773438 242.945312 255.972656 245.015625 C 254.175781 247.085938 252.316406 249.105469 250.398438 251.066406 C 248.480469 253.03125 246.507812 254.9375 244.476562 256.785156 C 242.449219 258.628906 240.367188 260.417969 238.230469 262.140625 C 236.097656 263.867188 233.914062 265.527344 231.683594 267.125 C 229.453125 268.71875 227.175781 270.25 224.851562 271.714844 C 222.53125 273.175781 220.167969 274.570312 217.765625 275.894531 C 215.363281 277.21875 212.921875 278.472656 210.445312 279.652344 C 207.96875 280.835938 205.460938 281.941406 202.917969 282.976562 C 200.375 284.011719 197.804688 284.96875 195.207031 285.851562 Z M 195.246094 285.800781 "/>
</g>
</g>
</svg>
