<?xml version="1.0" encoding="UTF-8"?>
<svg xmlns="http://www.w3.org/2000/svg" xmlns:xlink="http://www.w3.org/1999/xlink" width="300pt" height="299.999988pt" viewBox="0 0 300 299.999988" version="1.2">
<defs>
<clipPath id="clip1">
  <path d="M 0 37.5 L 300 37.5 L 300 262.5 L 0 262.5 Z M 0 37.5 "/>
</clipPath>
</defs>
<g id="surface1">
<g clip-path="url(#clip1)" clip-rule="nonzero">
<path style=" stroke:none;fill-rule:nonzero;fill:rgb(94.119263%,94.509888%,97.24884%);fill-opacity:1;" d="M 275.773438 262.5 L 257.800781 262.5 C 254.351562 262.5 251.550781 259.699219 251.550781 256.25 L 251.550781 107.613281 L 153.601562 176.9375 C 151.425781 178.460938 148.550781 178.460938 146.375 176.9375 L 48.4375 107.613281 L 48.4375 256.25 C 48.4375 259.699219 45.636719 262.5 42.1875 262.5 L 24.226562 262.5 C 10.636719 262.5 0 251.976562 0 238.539062 L 0 61.460938 C 0 54.914062 2.5 48.851562 7.023438 44.398438 C 11.476562 39.960938 17.585938 37.5 24.226562 37.5 L 30.210938 37.5 C 31.511719 37.5 32.789062 37.914062 33.851562 38.664062 L 150 121.648438 L 266.148438 38.664062 C 267.210938 37.914062 268.488281 37.5 269.789062 37.5 L 275.773438 37.5 C 282.363281 37.5 288.488281 39.949219 292.976562 44.414062 C 297.5 48.824219 300 54.886719 300 61.460938 L 300 238.550781 C 300 251.976562 289.363281 262.5 275.773438 262.5 Z M 264.0625 250 L 275.789062 250 C 282.460938 250 287.5 245.074219 287.5 238.539062 L 287.5 61.460938 C 287.5 58.289062 286.335938 55.398438 284.210938 53.324219 C 282.039062 51.175781 279.050781 50 275.773438 50 L 271.789062 50 L 153.636719 134.425781 C 151.460938 135.976562 148.539062 135.976562 146.363281 134.425781 L 28.210938 50 L 24.226562 50 C 20.925781 50 17.949219 51.164062 15.835938 53.273438 C 13.675781 55.398438 12.5 58.289062 12.5 61.460938 L 12.5 238.550781 C 12.5 245.1875 17.4375 250 24.226562 250 L 35.949219 250 L 35.949219 95.539062 C 35.949219 93.199219 37.25 91.0625 39.335938 89.988281 C 41.414062 88.914062 43.914062 89.085938 45.824219 90.4375 L 150.023438 164.1875 L 254.226562 90.4375 C 256.125 89.101562 258.636719 88.914062 260.710938 89.988281 C 262.789062 91.050781 264.101562 93.199219 264.101562 95.539062 L 264.101562 250 Z M 264.0625 250 "/>
</g>
</g>
</svg>
