<?xml version="1.0" encoding="UTF-8"?>
<svg xmlns="http://www.w3.org/2000/svg" xmlns:xlink="http://www.w3.org/1999/xlink" width="300pt" height="299.999988pt" viewBox="0 0 300 299.999988" version="1.2">
<g id="surface1">
<path style=" stroke:none;fill-rule:nonzero;fill:rgb(94.119263%,94.509888%,97.24884%);fill-opacity:1;" d="M 150 0 C 67.234375 0 0 67.234375 0 150 C 0 232.765625 67.234375 300 150 300 C 232.765625 300 300 232.765625 300 150 C 300 67.234375 232.765625 0 150 0 Z M 150 13.042969 C 225.714844 13.042969 286.957031 74.285156 286.957031 150 C 286.957031 225.714844 225.714844 286.957031 150 286.957031 C 74.285156 286.957031 13.042969 225.714844 13.042969 150 C 13.042969 74.285156 74.285156 13.042969 150 13.042969 Z M 91.304688 65.21875 C 80.574219 65.21875 71.738281 74.054688 71.738281 84.78125 C 71.738281 95.511719 80.574219 104.347656 91.304688 104.347656 C 102.03125 104.347656 110.871094 95.511719 110.871094 84.78125 C 110.871094 74.054688 102.03125 65.21875 91.304688 65.21875 Z M 91.304688 78.261719 C 94.984375 78.261719 97.824219 81.101562 97.824219 84.78125 C 97.824219 88.460938 94.984375 91.304688 91.304688 91.304688 C 87.625 91.304688 84.78125 88.460938 84.78125 84.78125 C 84.78125 81.101562 87.625 78.261719 91.304688 78.261719 Z M 78.261719 110.871094 C 77.832031 110.871094 77.410156 110.910156 76.988281 110.996094 C 76.570312 111.078125 76.160156 111.203125 75.765625 111.367188 C 75.371094 111.53125 74.992188 111.730469 74.636719 111.96875 C 74.28125 112.207031 73.953125 112.476562 73.648438 112.78125 C 73.347656 113.082031 73.074219 113.414062 72.839844 113.769531 C 72.601562 114.125 72.398438 114.5 72.234375 114.894531 C 72.070312 115.292969 71.949219 115.699219 71.863281 116.117188 C 71.78125 116.539062 71.738281 116.964844 71.738281 117.390625 L 71.738281 215.21875 C 71.738281 215.644531 71.78125 216.070312 71.863281 216.488281 C 71.949219 216.910156 72.070312 217.316406 72.234375 217.714844 C 72.398438 218.109375 72.601562 218.484375 72.839844 218.839844 C 73.078125 219.195312 73.347656 219.527344 73.648438 219.828125 C 73.953125 220.132812 74.28125 220.402344 74.636719 220.640625 C 74.992188 220.878906 75.371094 221.078125 75.765625 221.242188 C 76.160156 221.40625 76.570312 221.53125 76.988281 221.613281 C 77.410156 221.699219 77.832031 221.738281 78.261719 221.738281 L 104.347656 221.738281 C 104.777344 221.738281 105.199219 221.695312 105.621094 221.613281 C 106.039062 221.53125 106.449219 221.40625 106.84375 221.242188 C 107.238281 221.078125 107.613281 220.878906 107.972656 220.640625 C 108.328125 220.402344 108.65625 220.132812 108.960938 219.828125 C 109.261719 219.527344 109.53125 219.195312 109.769531 218.839844 C 110.007812 218.484375 110.210938 218.109375 110.375 217.710938 C 110.535156 217.316406 110.660156 216.910156 110.746094 216.488281 C 110.828125 216.070312 110.871094 215.644531 110.871094 215.21875 L 110.871094 117.390625 C 110.871094 116.964844 110.828125 116.539062 110.742188 116.117188 C 110.660156 115.699219 110.535156 115.292969 110.371094 114.894531 C 110.207031 114.5 110.007812 114.125 109.769531 113.769531 C 109.53125 113.410156 109.261719 113.082031 108.957031 112.78125 C 108.65625 112.476562 108.328125 112.207031 107.96875 111.96875 C 107.613281 111.730469 107.238281 111.53125 106.84375 111.367188 C 106.449219 111.203125 106.039062 111.078125 105.621094 110.996094 C 105.199219 110.910156 104.777344 110.871094 104.347656 110.871094 Z M 130.433594 110.871094 C 130.007812 110.871094 129.582031 110.910156 129.164062 110.996094 C 128.742188 111.078125 128.335938 111.203125 127.9375 111.367188 C 127.542969 111.53125 127.167969 111.730469 126.8125 111.96875 C 126.457031 112.207031 126.125 112.476562 125.824219 112.78125 C 125.519531 113.082031 125.25 113.414062 125.011719 113.769531 C 124.773438 114.125 124.574219 114.5 124.410156 114.894531 C 124.246094 115.292969 124.121094 115.699219 124.039062 116.117188 C 123.953125 116.539062 123.914062 116.964844 123.914062 117.390625 L 123.914062 215.21875 C 123.914062 215.644531 123.953125 216.070312 124.039062 216.488281 C 124.121094 216.910156 124.246094 217.316406 124.410156 217.714844 C 124.574219 218.109375 124.773438 218.484375 125.011719 218.839844 C 125.25 219.195312 125.519531 219.527344 125.824219 219.828125 C 126.125 220.132812 126.457031 220.402344 126.8125 220.640625 C 127.167969 220.878906 127.542969 221.078125 127.9375 221.242188 C 128.335938 221.40625 128.742188 221.53125 129.164062 221.613281 C 129.582031 221.699219 130.007812 221.738281 130.433594 221.738281 L 156.523438 221.738281 C 156.949219 221.738281 157.375 221.695312 157.792969 221.613281 C 158.214844 221.53125 158.621094 221.40625 159.019531 221.242188 C 159.414062 221.078125 159.789062 220.878906 160.144531 220.640625 C 160.5 220.402344 160.832031 220.132812 161.132812 219.828125 C 161.4375 219.527344 161.707031 219.195312 161.945312 218.839844 C 162.183594 218.484375 162.382812 218.109375 162.546875 217.710938 C 162.710938 217.316406 162.835938 216.910156 162.917969 216.488281 C 163 216.070312 163.042969 215.644531 163.042969 215.21875 L 163.042969 166.304688 C 163.042969 157.308594 170.351562 150 179.347656 150 C 188.34375 150 195.652344 157.308594 195.652344 166.304688 L 195.652344 215.21875 C 195.652344 215.644531 195.695312 216.070312 195.777344 216.488281 C 195.859375 216.910156 195.984375 217.316406 196.148438 217.714844 C 196.3125 218.109375 196.515625 218.484375 196.75 218.839844 C 196.988281 219.195312 197.261719 219.527344 197.5625 219.828125 C 197.867188 220.132812 198.195312 220.402344 198.550781 220.640625 C 198.90625 220.878906 199.28125 221.078125 199.679688 221.242188 C 200.074219 221.40625 200.480469 221.53125 200.902344 221.613281 C 201.320312 221.699219 201.746094 221.738281 202.175781 221.738281 L 228.261719 221.738281 C 228.6875 221.738281 229.113281 221.695312 229.535156 221.613281 C 229.953125 221.53125 230.359375 221.40625 230.757812 221.242188 C 231.152344 221.078125 231.527344 220.878906 231.882812 220.640625 C 232.242188 220.402344 232.570312 220.132812 232.871094 219.828125 C 233.175781 219.527344 233.445312 219.195312 233.683594 218.839844 C 233.921875 218.484375 234.121094 218.109375 234.285156 217.710938 C 234.449219 217.316406 234.574219 216.910156 234.65625 216.488281 C 234.742188 216.070312 234.78125 215.644531 234.78125 215.21875 L 234.78125 159.78125 C 234.78125 132.84375 212.808594 110.871094 185.871094 110.871094 C 177.480469 110.871094 169.953125 113.582031 163.042969 117.328125 C 163.039062 116.902344 162.992188 116.480469 162.90625 116.0625 C 162.820312 115.648438 162.695312 115.242188 162.527344 114.851562 C 162.363281 114.460938 162.160156 114.085938 161.921875 113.734375 C 161.683594 113.382812 161.414062 113.054688 161.109375 112.757812 C 160.808594 112.457031 160.480469 112.191406 160.125 111.957031 C 159.769531 111.71875 159.394531 111.523438 159.003906 111.359375 C 158.609375 111.199219 158.203125 111.074219 157.785156 110.992188 C 157.367188 110.910156 156.945312 110.871094 156.523438 110.871094 Z M 84.78125 123.914062 L 97.824219 123.914062 L 97.824219 208.695312 L 84.78125 208.695312 Z M 136.957031 123.914062 L 150 123.914062 L 150 129.238281 C 150 129.878906 150.09375 130.503906 150.277344 131.117188 C 150.460938 131.726562 150.730469 132.300781 151.082031 132.835938 C 151.433594 133.367188 151.855469 133.839844 152.347656 134.25 C 152.839844 134.65625 153.378906 134.988281 153.96875 135.238281 C 154.554688 135.488281 155.167969 135.648438 155.804688 135.71875 C 156.441406 135.789062 157.074219 135.765625 157.703125 135.652344 C 158.332031 135.535156 158.929688 135.332031 159.5 135.039062 C 160.066406 134.75 160.582031 134.382812 161.042969 133.9375 C 167.503906 127.730469 176.195312 123.914062 185.871094 123.914062 C 205.757812 123.914062 221.738281 139.894531 221.738281 159.78125 L 221.738281 208.695312 L 208.695312 208.695312 L 208.695312 166.304688 C 208.695312 150.191406 195.460938 136.957031 179.347656 136.957031 C 163.234375 136.957031 150 150.191406 150 166.304688 L 150 208.695312 L 136.957031 208.695312 Z M 136.957031 123.914062 "/>
</g>
</svg>
